# xmcd
#
# Track frame offsets:
#	183
#	22780
#	76663
#	94990
#	133103
#	163658
#	201160
#	215853
#	245033
#	265225
#	300698
#	321350
#
# Disc length: 4733
#
# Revision: 1
# Processed by: cddbd v1.5.1PL0 Copyright (c) Steve Scherf et al.
# Submitted via: CDex 1.51
# Normalized: r0:DSETVAR1,TDELIM( - )
#
DISCID=a9127b0c
DTITLE=Various Artist - A Night At Ronnie's (Volume 1)
DYEAR=1991
DGENRE=Jazz
TTITLE0=Arturo Sandoval - Donna Lee
TTITLE1=Ronnie Scott's Quintet - White Caps
TTITLE2=Marion Montgomery - Nice Work If You Can Get It/Easy To Love
TTITLE3=Tim Whitehead - Falling Grace
TTITLE4=Irakere - La Pastora
TTITLE5=Chico Freeman/Arthur Blythe - Luminous
TTITLE6=Sarah Vaughan - Early Autumn
TTITLE7=John Taylor Trio - Spring is Here
TTITLE8=Tam White And The Band - Sleep Late Louie's
TTITLE9=George Coleman - Siorra
TTITLE10=Roy Ayers - You Send Me
TTITLE11=Jack Sharpe Big Band - I'm Beginning To See The Light
EXTD=YEAR: 1991
EXTT0=
EXTT1=
EXTT2=
EXTT3=
EXTT4=
EXTT5=
EXTT6=
EXTT7=
EXTT8=
EXTT9=
EXTT10=
EXTT11=
PLAYORDER=
